<svg width="151" height="40" viewBox="0 0 151 40" fill="none" xmlns="http://www.w3.org/2000/svg">
<path d="M24.2865 18.7084C24.2468 14.3573 27.9029 12.2405 28.0701 12.142C25.9995 9.16794 22.7901 8.76159 21.6623 8.72919C18.9668 8.44974 16.3521 10.3181 14.979 10.3181C13.5785 10.3181 11.464 8.75619 9.18505 8.80209C6.25246 8.84664 3.50898 10.5193 2.00431 13.1167C-1.10095 18.4127 1.21498 26.1955 4.19005 30.4763C5.67828 32.5729 7.41728 34.9138 9.69346 34.8314C11.9203 34.741 12.7521 33.4328 15.4394 33.4328C18.1021 33.4328 18.8832 34.8314 21.2046 34.7788C23.5945 34.741 25.0992 32.6728 26.5353 30.5573C28.2551 28.1543 28.9458 25.7878 28.9732 25.6663C28.917 25.6474 24.3318 23.9234 24.2865 18.7084Z" fill="white"/>
<path d="M19.9014 5.91309C21.0991 4.43754 21.9186 2.43009 21.6911 0.392944C19.9576 0.468544 17.7896 1.57419 16.5412 3.01735C15.4367 4.28905 14.45 6.37345 14.7049 8.33365C16.6522 8.47675 18.6516 7.3657 19.9014 5.91309Z" fill="white"/>
<path d="M56.5135 34.5304H53.4014L51.6967 29.2532H45.7712L44.1473 34.5304H41.1174L46.9881 16.5646H50.6141L56.5135 34.5304ZM51.1828 27.0392L49.6411 22.348C49.4781 21.8687 49.1725 20.7401 48.7216 18.9635H48.6668C48.4873 19.7276 48.1981 20.8562 47.8007 22.348L46.2865 27.0392H51.1828Z" fill="white"/>
<path d="M71.6109 27.8938C71.6109 30.097 71.0066 31.8385 69.7979 33.1169C68.7153 34.255 67.371 34.8233 65.7663 34.8233C64.0341 34.8233 62.7898 34.2104 62.032 32.9846H61.9772V39.8089H59.0556V25.8404C59.0556 24.4553 59.0186 23.0338 58.9473 21.5758H61.5168L61.6798 23.6291H61.7347C62.709 22.082 64.1876 21.3098 66.1719 21.3098C67.7232 21.3098 69.0182 21.9133 70.0542 23.1215C71.0929 24.3311 71.6109 25.9214 71.6109 27.8938ZM68.6345 27.9991C68.6345 26.7382 68.3467 25.6987 67.7684 24.8806C67.1367 24.0274 66.2884 23.6008 65.225 23.6008C64.5042 23.6008 63.8491 23.8384 63.264 24.3068C62.6775 24.7793 62.2938 25.3963 62.1142 26.1604C62.0238 26.5168 61.9786 26.8084 61.9786 27.0379V29.1979C61.9786 30.1402 62.2718 30.9353 62.8584 31.5847C63.4449 32.234 64.2068 32.558 65.1441 32.558C66.2445 32.558 67.101 32.1395 67.7136 31.3052C68.3275 30.4696 68.6345 29.368 68.6345 27.9991Z" fill="white"/>
<path d="M86.7357 27.8938C86.7357 30.097 86.1314 31.8385 84.9213 33.1169C83.8401 34.255 82.4958 34.8233 80.8911 34.8233C79.1589 34.8233 77.9146 34.2104 77.1582 32.9846H77.1034V39.8089H74.1817V25.8404C74.1817 24.4553 74.1447 23.0338 74.0735 21.5758H76.6429L76.806 23.6291H76.8608C77.8338 22.082 79.3124 21.3098 81.2981 21.3098C82.848 21.3098 84.143 21.9133 85.1817 23.1215C86.2163 24.3311 86.7357 25.9214 86.7357 27.8938ZM83.7593 27.9991C83.7593 26.7382 83.4701 25.6987 82.8918 24.8806C82.2601 24.0274 81.4146 23.6008 80.3498 23.6008C79.6276 23.6008 78.9739 23.8384 78.3874 24.3068C77.8009 24.7793 77.4186 25.3963 77.239 26.1604C77.15 26.5168 77.1034 26.8084 77.1034 27.0379V29.1979C77.1034 30.1402 77.3966 30.9353 77.9804 31.5847C78.5669 32.2327 79.3289 32.558 80.2689 32.558C81.3693 32.558 82.2258 32.1395 82.8384 31.3052C83.4523 30.4696 83.7593 29.368 83.7593 27.9991Z" fill="white"/>
<path d="M103.646 29.4922C103.646 31.0204 103.107 32.2637 102.026 33.2236C100.838 34.2725 99.1841 34.7963 97.0587 34.7963C95.0963 34.7963 93.5231 34.4237 92.3323 33.6772L93.0092 31.2782C94.2919 32.0423 95.6993 32.4257 97.2327 32.4257C98.3331 32.4257 99.1896 32.18 99.8049 31.6913C100.417 31.2026 100.723 30.5465 100.723 29.7284C100.723 28.9994 100.471 28.3852 99.9652 27.887C99.4623 27.3889 98.6223 26.9258 97.4492 26.4979C94.2563 25.3247 92.6612 23.6062 92.6612 21.3463C92.6612 19.8694 93.2203 18.6584 94.3399 17.7161C95.4554 16.7725 96.9436 16.3013 98.8045 16.3013C100.464 16.3013 101.843 16.5862 102.943 17.1545L102.213 19.5008C101.185 18.95 100.023 18.6746 98.7223 18.6746C97.6945 18.6746 96.8915 18.9244 96.3159 19.4212C95.8295 19.8653 95.5855 20.4067 95.5855 21.0479C95.5855 21.758 95.8637 22.3453 96.4228 22.807C96.9093 23.2336 97.7932 23.6953 99.0759 24.1934C100.645 24.8158 101.797 25.5434 102.539 26.3777C103.277 27.2093 103.646 28.2502 103.646 29.4922Z" fill="white"/>
<path d="M113.306 23.7358H110.085V30.0254C110.085 31.6252 110.653 32.4244 111.79 32.4244C112.312 32.4244 112.745 32.3798 113.088 32.2907L113.169 34.4764C112.593 34.6883 111.835 34.795 110.897 34.795C109.743 34.795 108.841 34.448 108.19 33.7555C107.542 33.0616 107.216 31.8979 107.216 30.263V23.7331H105.297V21.5731H107.216V19.2011L110.085 18.3479V21.5731H113.306V23.7358Z" fill="white"/>
<path d="M127.836 27.9464C127.836 29.9377 127.258 31.5725 126.104 32.851C124.894 34.1672 123.288 34.8233 121.285 34.8233C119.356 34.8233 117.82 34.1929 116.674 32.932C115.529 31.6711 114.956 30.0794 114.956 28.1611C114.956 26.1536 115.545 24.5093 116.728 23.2309C117.907 21.9511 119.5 21.3112 121.502 21.3112C123.431 21.3112 124.984 21.9416 126.156 23.2039C127.277 24.4283 127.836 26.0092 127.836 27.9464ZM124.805 28.0396C124.805 26.8448 124.546 25.8202 124.021 24.9656C123.408 23.9315 122.532 23.4158 121.398 23.4158C120.223 23.4158 119.331 23.9329 118.719 24.9656C118.194 25.8215 117.935 26.8624 117.935 28.0936C117.935 29.2883 118.194 30.313 118.719 31.1662C119.35 32.2003 120.233 32.716 121.372 32.716C122.487 32.716 123.363 32.1895 123.995 31.1392C124.533 30.2684 124.805 29.233 124.805 28.0396Z" fill="white"/>
<path d="M137.333 24.107C137.043 24.0544 136.735 24.0274 136.412 24.0274C135.384 24.0274 134.589 24.4094 134.03 25.1749C133.543 25.8499 133.3 26.7031 133.3 27.7331V34.5304H130.379L130.407 25.6555C130.407 24.1624 130.37 22.8029 130.297 21.5771H132.842L132.949 24.0557H133.03C133.338 23.2039 133.824 22.5181 134.49 22.0037C135.141 21.5407 135.844 21.3098 136.602 21.3098C136.872 21.3098 137.116 21.3287 137.333 21.3625V24.107Z" fill="white"/>
<path d="M150.399 27.4402C150.399 27.9559 150.365 28.3906 150.292 28.7457H141.527C141.561 30.0255 141.985 31.0042 142.799 31.6792C143.538 32.2827 144.493 32.5851 145.666 32.5851C146.963 32.5851 148.147 32.3812 149.212 31.9721L149.67 33.9702C148.426 34.5048 146.957 34.7707 145.261 34.7707C143.222 34.7707 141.622 34.1794 140.457 32.9982C139.295 31.8169 138.712 30.2306 138.712 28.2408C138.712 26.2873 139.254 24.6606 140.338 23.3632C141.472 21.9781 143.006 21.2856 144.935 21.2856C146.831 21.2856 148.265 21.9781 149.24 23.3632C150.011 24.4635 150.399 25.8243 150.399 27.4402ZM147.613 26.6937C147.632 25.8405 147.442 25.1034 147.046 24.481C146.54 23.6805 145.763 23.2809 144.717 23.2809C143.762 23.2809 142.985 23.671 142.392 24.454C141.905 25.0764 141.616 25.8229 141.527 26.6923H147.613V26.6937Z" fill="white"/>
<path d="M50.2167 5.51213C50.2167 7.10108 49.7329 8.29718 48.7668 9.10043C47.872 9.84158 46.6003 10.2128 44.9531 10.2128C44.1363 10.2128 43.4374 10.1777 42.8523 10.1075V1.42568C43.6156 1.30418 44.4378 1.24208 45.3258 1.24208C46.8949 1.24208 48.0775 1.57823 48.8751 2.25053C49.7686 3.01058 50.2167 4.09733 50.2167 5.51213ZM48.7024 5.55128C48.7024 4.52123 48.4256 3.73148 47.872 3.18068C47.3183 2.63123 46.5098 2.35583 45.445 2.35583C44.9928 2.35583 44.6077 2.38553 44.2884 2.44763V9.04778C44.4652 9.07478 44.7886 9.08693 45.2587 9.08693C46.3577 9.08693 47.206 8.78588 47.8034 8.18378C48.4009 7.58168 48.7024 6.70418 48.7024 5.55128Z" fill="white"/>
<path d="M58.2456 6.89994C58.2456 7.87869 57.962 8.68059 57.3946 9.30969C56.7999 9.95634 56.0119 10.279 55.028 10.279C54.0797 10.279 53.3246 9.96984 52.7614 9.34884C52.1996 8.72919 51.9186 7.94754 51.9186 7.00524C51.9186 6.01974 52.2078 5.21109 52.7888 4.58334C53.3699 3.95559 54.151 3.64104 55.1349 3.64104C56.0832 3.64104 56.8451 3.95019 57.422 4.56984C57.9702 5.17194 58.2456 5.94954 58.2456 6.89994ZM56.756 6.94584C56.756 6.35859 56.6272 5.85504 56.371 5.43519C56.0695 4.92759 55.6406 4.67379 55.0828 4.67379C54.5059 4.67379 54.0674 4.92759 53.7659 5.43519C53.5083 5.85504 53.3808 6.36669 53.3808 6.97149C53.3808 7.55874 53.5096 8.06229 53.7659 8.48214C54.077 8.98974 54.51 9.24354 55.0691 9.24354C55.6173 9.24354 56.0476 8.98569 56.3573 8.46864C56.6231 8.04069 56.756 7.53309 56.756 6.94584Z" fill="white"/>
<path d="M69.0113 3.77063L66.99 10.1345H65.6744L64.8372 7.37108C64.6247 6.68123 64.4521 5.99543 64.3178 5.31503H64.2917C64.167 6.01433 63.9944 6.69878 63.7724 7.37108L62.883 10.1345H61.5524L59.6517 3.77063H61.1276L61.858 6.79598C62.0347 7.51148 62.18 8.19323 62.2965 8.83853H62.3225C62.4294 8.30663 62.6062 7.62893 62.8556 6.80948L63.7724 3.77198H64.9427L65.8211 6.74468C66.0335 7.46963 66.2061 8.16758 66.3391 8.83988H66.3788C66.4761 8.18513 66.6227 7.48718 66.8173 6.74468L67.6012 3.77198H69.0113V3.77063Z" fill="white"/>
<path d="M76.4565 10.1345H75.0203V6.48954C75.0203 5.36634 74.5873 4.80474 73.7185 4.80474C73.2923 4.80474 72.9483 4.95864 72.6811 5.26779C72.4166 5.57694 72.2823 5.94144 72.2823 6.35859V10.1332H70.8462V5.58909C70.8462 5.03019 70.8284 4.42404 70.7941 3.76794H72.0562L72.1234 4.76289H72.1631C72.3303 4.45374 72.5797 4.19859 72.9072 3.99474C73.2964 3.75714 73.7322 3.63699 74.2091 3.63699C74.812 3.63699 75.3136 3.82869 75.7124 4.21344C76.2085 4.68459 76.4565 5.38794 76.4565 6.32214V10.1345Z" fill="white"/>
<path d="M80.4169 10.1345H78.9821V0.850586H80.4169V10.1345Z" fill="white"/>
<path d="M88.8721 6.89994C88.8721 7.87869 88.5884 8.68059 88.0211 9.30969C87.4263 9.95634 86.637 10.279 85.6544 10.279C84.7048 10.279 83.9497 9.96984 83.3878 9.34884C82.826 8.72919 82.5451 7.94754 82.5451 7.00524C82.5451 6.01974 82.8342 5.21109 83.4153 4.58334C83.9963 3.95559 84.7774 3.64104 85.76 3.64104C86.7096 3.64104 87.4702 3.95019 88.0485 4.56984C88.5966 5.17194 88.8721 5.94954 88.8721 6.89994ZM87.3811 6.94584C87.3811 6.35859 87.2523 5.85504 86.996 5.43519C86.6959 4.92759 86.2656 4.67379 85.7093 4.67379C85.131 4.67379 84.6924 4.92759 84.3923 5.43519C84.1347 5.85504 84.0073 6.36669 84.0073 6.97149C84.0073 7.55874 84.1361 8.06229 84.3923 8.48214C84.7034 8.98974 85.1364 9.24354 85.6956 9.24354C86.2437 9.24354 86.6726 8.98569 86.9823 8.46864C87.2495 8.04069 87.3811 7.53309 87.3811 6.94584Z" fill="white"/>
<path d="M95.8226 10.1345H94.5331L94.4262 9.40149H94.3864C93.9452 9.98604 93.3162 10.279 92.4994 10.279C91.8896 10.279 91.3963 10.0859 91.0249 9.70254C90.6878 9.35424 90.5193 8.92089 90.5193 8.40654C90.5193 7.62894 90.8481 7.03629 91.51 6.62589C92.1705 6.21549 93.0997 6.01434 94.296 6.02379V5.90499C94.296 5.06664 93.8493 4.64814 92.9544 4.64814C92.3172 4.64814 91.7553 4.80609 91.2702 5.11929L90.9783 4.19049C91.5786 3.82464 92.3199 3.64104 93.1942 3.64104C94.8825 3.64104 95.7294 4.51854 95.7294 6.27354V8.61714C95.7294 9.25299 95.7609 9.75924 95.8226 10.1345ZM94.3316 7.94754V6.96609C92.7475 6.93909 91.9554 7.36704 91.9554 8.24859C91.9554 8.58069 92.0458 8.82909 92.2308 8.99514C92.4158 9.16119 92.6516 9.24354 92.9325 9.24354C93.2477 9.24354 93.5423 9.14499 93.8109 8.94924C94.0808 8.75214 94.2467 8.50239 94.3083 8.19594C94.3234 8.12709 94.3316 8.04339 94.3316 7.94754Z" fill="white"/>
<path d="M103.983 10.1345H102.709L102.642 9.11259H102.602C102.195 9.89019 101.501 10.279 100.527 10.279C99.7487 10.279 99.1005 9.97794 98.5866 9.37584C98.0728 8.77374 97.8165 7.99209 97.8165 7.03224C97.8165 6.00219 98.0947 5.16789 98.6538 4.53069C99.1951 3.93669 99.8583 3.63969 100.648 3.63969C101.515 3.63969 102.122 3.92724 102.468 4.50369H102.495V0.850586H103.932V8.42004C103.932 9.03969 103.949 9.61073 103.983 10.1345ZM102.495 7.45074V6.38964C102.495 6.20604 102.481 6.05754 102.455 5.94414C102.374 5.60394 102.2 5.31774 101.936 5.08689C101.669 4.85604 101.347 4.73994 100.975 4.73994C100.439 4.73994 100.02 4.94919 99.7117 5.36904C99.4061 5.78889 99.2513 6.32484 99.2513 6.97959C99.2513 7.60869 99.3979 8.11899 99.6925 8.51184C100.004 8.93034 100.423 9.13959 100.948 9.13959C101.419 9.13959 101.796 8.96544 102.082 8.61579C102.359 8.29314 102.495 7.90434 102.495 7.45074Z" fill="white"/>
<path d="M116.266 6.89994C116.266 7.87869 115.982 8.68059 115.415 9.30969C114.82 9.95634 114.033 10.279 113.048 10.279C112.101 10.279 111.346 9.96984 110.782 9.34884C110.22 8.72919 109.939 7.94754 109.939 7.00524C109.939 6.01974 110.228 5.21109 110.809 4.58334C111.39 3.95559 112.171 3.64104 113.156 3.64104C114.103 3.64104 114.867 3.95019 115.442 4.56984C115.99 5.17194 116.266 5.94954 116.266 6.89994ZM114.778 6.94584C114.778 6.35859 114.649 5.85504 114.392 5.43519C114.09 4.92759 113.662 4.67379 113.103 4.67379C112.527 4.67379 112.089 4.92759 111.786 5.43519C111.528 5.85504 111.401 6.36669 111.401 6.97149C111.401 7.55874 111.53 8.06229 111.786 8.48214C112.097 8.98974 112.53 9.24354 113.089 9.24354C113.637 9.24354 114.069 8.98569 114.379 8.46864C114.643 8.04069 114.778 7.53309 114.778 6.94584Z" fill="white"/>
<path d="M123.988 10.1345H122.553V6.48954C122.553 5.36634 122.12 4.80474 121.25 4.80474C120.824 4.80474 120.48 4.95864 120.214 5.26779C119.948 5.57694 119.815 5.94144 119.815 6.35859V10.1332H118.378V5.58909C118.378 5.03019 118.361 4.42404 118.327 3.76794H119.588L119.655 4.76289H119.694C119.863 4.45374 120.112 4.19859 120.439 3.99474C120.829 3.75714 121.264 3.63699 121.742 3.63699C122.343 3.63699 122.845 3.82869 123.244 4.21344C123.741 4.68459 123.988 5.38794 123.988 6.32214V10.1345Z" fill="white"/>
<path d="M133.653 4.83038H132.072V7.92188C132.072 8.70758 132.353 9.10043 132.909 9.10043C133.167 9.10043 133.38 9.07883 133.549 9.03428L133.586 10.1075C133.302 10.2128 132.929 10.2655 132.47 10.2655C131.903 10.2655 131.462 10.0954 131.143 9.75518C130.822 9.41498 130.663 8.84258 130.663 8.03933V4.83038H129.719V3.77063H130.663V2.60423L132.07 2.18573V3.76928H133.652V4.83038H133.653Z" fill="white"/>
<path d="M141.256 10.1345H139.818V6.51654C139.818 5.37579 139.385 4.80473 138.518 4.80473C137.852 4.80473 137.397 5.13549 137.147 5.79699C137.105 5.93604 137.08 6.10614 137.08 6.30594V10.1332H135.646V0.850586H137.08V4.68594H137.108C137.56 3.98799 138.208 3.63969 139.048 3.63969C139.643 3.63969 140.135 3.83139 140.525 4.21614C141.012 4.69538 141.256 5.40819 141.256 6.35049V10.1345Z" fill="white"/>
<path d="M149.098 6.65154C149.098 6.90534 149.079 7.11864 149.045 7.29279H144.738C144.757 7.92189 144.963 8.40114 145.361 8.73324C145.726 9.03024 146.196 9.17874 146.772 9.17874C147.409 9.17874 147.99 9.07884 148.513 8.87769L148.738 9.86049C148.126 10.1224 147.405 10.2533 146.57 10.2533C145.57 10.2533 144.782 9.96309 144.212 9.38259C143.639 8.80209 143.355 8.02314 143.355 7.04574C143.355 6.08589 143.62 5.28669 144.153 4.64949C144.709 3.96909 145.462 3.62889 146.411 3.62889C147.34 3.62889 148.046 3.96909 148.523 4.64949C148.908 5.18949 149.098 5.85774 149.098 6.65154ZM147.728 6.28569C147.739 5.86584 147.645 5.50404 147.45 5.19894C147.201 4.80609 146.821 4.60899 146.307 4.60899C145.838 4.60899 145.456 4.80069 145.164 5.18544C144.926 5.49189 144.785 5.85774 144.738 6.28569H147.728Z" fill="white"/>
</svg>
