<svg width="151" height="40" fill="none" xmlns="http://www.w3.org/2000/svg"><path d="M24.287 18.708c-.04-4.35 3.616-6.467 3.783-6.566-2.07-2.974-5.28-3.38-6.408-3.413-2.695-.28-5.31 1.59-6.683 1.59-1.4 0-3.515-1.563-5.794-1.517-2.933.045-5.676 1.717-7.18 4.315-3.106 5.296-.79 13.078 2.185 17.36 1.488 2.096 3.227 4.437 5.503 4.354 2.227-.09 3.06-1.398 5.746-1.398 2.663 0 3.444 1.398 5.766 1.346 2.39-.038 3.894-2.106 5.33-4.222 1.72-2.403 2.41-4.77 2.438-4.89-.056-.02-4.641-1.744-4.686-6.959ZM19.901 5.913C21.1 4.438 21.92 2.43 21.691.393c-1.733.076-3.901 1.181-5.15 2.624-1.104 1.272-2.091 3.356-1.836 5.317 1.947.143 3.947-.968 5.196-2.42ZM56.514 34.53H53.4l-1.704-5.277H45.77l-1.624 5.277h-3.03l5.871-17.965h3.626l5.9 17.965Zm-5.331-7.49-1.542-4.692c-.163-.48-.468-1.608-.92-3.384h-.054c-.18.764-.469 1.892-.866 3.384l-1.515 4.691h4.897Zm20.427.854c0 2.203-.603 3.945-1.812 5.223-1.083 1.138-2.427 1.706-4.032 1.706-1.732 0-2.976-.613-3.734-1.838h-.055v6.824h-2.921V25.84c0-1.385-.037-2.806-.109-4.264h2.57l.163 2.053h.055c.974-1.547 2.453-2.32 4.437-2.32 1.551 0 2.846.604 3.882 1.813 1.039 1.21 1.557 2.8 1.557 4.772Zm-2.975.105c0-1.26-.288-2.3-.867-3.118-.631-.854-1.48-1.28-2.543-1.28-.72 0-1.376.237-1.961.706a3.268 3.268 0 0 0-1.15 1.853c-.09.357-.135.648-.135.878v2.16c0 .942.293 1.737.88 2.387.586.649 1.348.973 2.285.973 1.1 0 1.957-.419 2.57-1.253.614-.835.92-1.937.92-3.306Zm18.101-.105c0 2.203-.605 3.945-1.815 5.223-1.08 1.138-2.425 1.706-4.03 1.706-1.732 0-2.976-.613-3.733-1.838h-.055v6.824h-2.921V25.84c0-1.385-.037-2.806-.109-4.264h2.57l.163 2.053h.055c.973-1.547 2.451-2.32 4.437-2.32 1.55 0 2.845.604 3.884 1.813 1.034 1.21 1.554 2.8 1.554 4.772Zm-2.977.105c0-1.26-.289-2.3-.867-3.118-.632-.854-1.477-1.28-2.542-1.28-.722 0-1.376.237-1.963.706-.586.472-.968 1.09-1.148 1.853-.089.357-.136.648-.136.878v2.16c0 .942.294 1.737.877 2.387.587.648 1.349.973 2.289.973 1.1 0 1.957-.419 2.57-1.253.613-.835.92-1.937.92-3.306Zm19.887 1.493c0 1.528-.539 2.772-1.62 3.732-1.188 1.049-2.842 1.572-4.967 1.572-1.963 0-3.536-.372-4.727-1.119l.677-2.399a8.1 8.1 0 0 0 4.224 1.148c1.1 0 1.957-.246 2.572-.735.612-.488.918-1.144.918-1.963 0-.729-.252-1.343-.758-1.841-.503-.498-1.343-.961-2.516-1.39-3.193-1.172-4.788-2.89-4.788-5.15 0-1.478.56-2.689 1.679-3.63 1.115-.944 2.604-1.416 4.465-1.416 1.659 0 3.038.285 4.138.854l-.73 2.346c-1.028-.551-2.19-.826-3.49-.826-1.028 0-1.832.25-2.407.746-.487.444-.73.986-.73 1.627 0 .71.278 1.297.837 1.759.486.427 1.37.888 2.653 1.386 1.569.623 2.721 1.35 3.463 2.185.738.831 1.107 1.872 1.107 3.114Zm9.66-5.756h-3.221v6.29c0 1.6.568 2.398 1.705 2.398.522 0 .955-.044 1.298-.133l.081 2.185c-.576.212-1.334.319-2.272.319-1.154 0-2.056-.347-2.707-1.04-.648-.693-.974-1.857-.974-3.492v-6.53h-1.919v-2.16h1.919v-2.372l2.869-.853v3.225h3.221v2.163Zm14.53 4.21c0 1.992-.578 3.627-1.732 4.905-1.21 1.316-2.816 1.972-4.819 1.972-1.929 0-3.465-.63-4.611-1.891-1.145-1.26-1.718-2.853-1.718-4.77 0-2.008.589-3.653 1.772-4.931 1.179-1.28 2.772-1.92 4.774-1.92 1.929 0 3.482.63 4.654 1.893 1.121 1.224 1.68 2.805 1.68 4.742Zm-3.031.094c0-1.195-.259-2.22-.784-3.074-.613-1.035-1.489-1.55-2.623-1.55-1.175 0-2.067.517-2.679 1.55-.525.855-.784 1.896-.784 3.128 0 1.194.259 2.219.784 3.072.631 1.034 1.514 1.55 2.653 1.55 1.115 0 1.991-.526 2.623-1.577.538-.87.81-1.906.81-3.1Zm12.528-3.933a5.164 5.164 0 0 0-.921-.08c-1.028 0-1.823.382-2.382 1.148-.487.675-.73 1.528-.73 2.558v6.797h-2.921l.028-8.875a69.05 69.05 0 0 0-.11-4.078h2.545l.107 2.479h.081c.308-.852.794-1.538 1.46-2.052.651-.463 1.354-.694 2.112-.694.27 0 .514.019.731.053v2.744Zm13.066 3.333c0 .516-.034.95-.107 1.306h-8.765c.034 1.28.458 2.258 1.272 2.933.739.604 1.694.906 2.867.906 1.297 0 2.481-.204 3.546-.613l.458 1.998c-1.244.535-2.713.8-4.409.8-2.039 0-3.639-.59-4.804-1.772-1.162-1.181-1.745-2.767-1.745-4.757 0-1.954.542-3.58 1.626-4.878 1.134-1.385 2.668-2.077 4.597-2.077 1.896 0 3.33.692 4.305 2.077.771 1.1 1.159 2.461 1.159 4.077Zm-2.786-.746c.019-.854-.171-1.59-.567-2.213-.506-.8-1.283-1.2-2.329-1.2-.955 0-1.732.39-2.325 1.173-.487.622-.776 1.369-.865 2.238h6.086v.002ZM50.217 5.512c0 1.59-.484 2.785-1.45 3.588-.895.742-2.167 1.113-3.814 1.113-.817 0-1.516-.035-2.1-.105V1.425a15.731 15.731 0 0 1 2.473-.184c1.569 0 2.752.336 3.55 1.009.893.76 1.34 1.846 1.34 3.261Zm-1.515.04c0-1.03-.276-1.82-.83-2.371-.554-.55-1.362-.825-2.427-.825-.452 0-.837.03-1.157.092v6.6c.177.027.5.039.97.039 1.1 0 1.948-.301 2.545-.903.598-.602.9-1.48.9-2.633ZM58.246 6.9c0 .979-.284 1.78-.851 2.41-.595.646-1.383.969-2.367.969-.948 0-1.703-.31-2.267-.93-.561-.62-.842-1.401-.842-2.344 0-.985.289-1.794.87-2.422.58-.627 1.362-.942 2.346-.942.948 0 1.71.31 2.287.929.548.602.824 1.38.824 2.33Zm-1.49.046c0-.587-.129-1.091-.385-1.51-.302-.508-.73-.762-1.288-.762-.577 0-1.016.254-1.317.761-.258.42-.385.932-.385 1.536 0 .588.129 1.091.385 1.511.311.508.744.762 1.303.762.548 0 .979-.258 1.288-.775.266-.428.399-.936.399-1.523ZM69.011 3.77l-2.021 6.364h-1.316l-.837-2.763a20.406 20.406 0 0 1-.52-2.056h-.025c-.125.7-.298 1.384-.52 2.056l-.889 2.763h-1.33l-1.901-6.363h1.476l.73 3.025c.177.715.322 1.397.439 2.043h.026c.106-.532.283-1.21.533-2.03l.916-3.037h1.17l.88 2.973c.212.725.384 1.423.517 2.095h.04c.097-.655.244-1.353.438-2.095l.784-2.973h1.41v-.001Zm7.446 6.364H75.02V6.49c0-1.124-.433-1.685-1.301-1.685-.427 0-.77.154-1.038.463a1.629 1.629 0 0 0-.399 1.09v3.775h-1.436V5.59c0-.559-.018-1.165-.052-1.821h1.262l.067.995h.04c.167-.31.417-.564.744-.768.39-.238.825-.358 1.302-.358.603 0 1.105.192 1.503.576.496.472.745 1.175.745 2.11v3.811Zm3.96 0h-1.435V.851h1.435v9.284ZM88.872 6.9c0 .979-.284 1.78-.85 2.41-.596.646-1.385.969-2.368.969-.95 0-1.704-.31-2.266-.93-.562-.62-.843-1.401-.843-2.344 0-.985.29-1.794.87-2.422.581-.627 1.362-.942 2.345-.942.95 0 1.71.31 2.288.929.549.602.824 1.38.824 2.33Zm-1.49.046c0-.587-.13-1.091-.386-1.51-.3-.508-.73-.762-1.287-.762-.578 0-1.017.254-1.317.761-.257.42-.385.932-.385 1.536 0 .588.13 1.091.385 1.511.311.508.744.762 1.304.762.548 0 .977-.258 1.286-.775.267-.428.4-.936.4-1.523Zm8.441 3.188h-1.29l-.107-.733h-.04c-.44.585-1.07.878-1.887.878-.61 0-1.103-.193-1.474-.576-.337-.349-.506-.782-.506-1.296 0-.778.33-1.37.991-1.781.66-.41 1.59-.612 2.786-.602v-.119c0-.838-.447-1.257-1.342-1.257-.637 0-1.199.158-1.684.471l-.292-.929c.6-.365 1.342-.549 2.216-.549 1.688 0 2.535.878 2.535 2.633v2.343c0 .636.032 1.142.094 1.517Zm-1.491-2.186v-.982c-1.584-.027-2.377.401-2.377 1.283 0 .332.09.58.276.746.185.166.42.249.702.249.315 0 .61-.099.878-.295a1.204 1.204 0 0 0 .52-1.001Zm9.651 2.186h-1.274l-.067-1.021h-.04c-.407.777-1.101 1.166-2.075 1.166-.778 0-1.427-.301-1.94-.903-.514-.602-.77-1.384-.77-2.344 0-1.03.278-1.864.837-2.501.541-.594 1.204-.891 1.994-.891.867 0 1.474.287 1.82.864h.027V.85h1.437v7.57c0 .62.017 1.19.051 1.714Zm-1.488-2.683V6.39c0-.184-.014-.332-.04-.446a1.61 1.61 0 0 0-.519-.857 1.424 1.424 0 0 0-.961-.347c-.536 0-.955.21-1.263.629-.306.42-.46.956-.46 1.61 0 .63.146 1.14.44 1.533a1.49 1.49 0 0 0 1.256.628c.471 0 .848-.175 1.134-.524.277-.323.413-.712.413-1.165Zm13.771-.551c0 .979-.284 1.78-.851 2.41-.595.646-1.382.969-2.367.969-.947 0-1.702-.31-2.266-.93-.562-.62-.843-1.401-.843-2.344 0-.985.289-1.794.87-2.422.581-.627 1.362-.942 2.347-.942.947 0 1.711.31 2.286.929.548.602.824 1.38.824 2.33Zm-1.488.046c0-.587-.129-1.091-.386-1.51-.302-.508-.73-.762-1.289-.762-.576 0-1.014.254-1.317.761-.258.42-.385.932-.385 1.536 0 .588.129 1.091.385 1.511.311.508.744.762 1.303.762.548 0 .98-.258 1.29-.775.264-.428.399-.936.399-1.523Zm9.21 3.188h-1.435V6.49c0-1.124-.433-1.685-1.303-1.685a1.3 1.3 0 0 0-1.036.463 1.619 1.619 0 0 0-.399 1.09v3.775h-1.437V5.59c0-.559-.017-1.165-.051-1.821h1.261l.067.995h.039c.169-.31.418-.564.745-.768.39-.238.825-.358 1.303-.358.601 0 1.103.192 1.502.576.497.472.744 1.175.744 2.11v3.811Zm9.665-5.304h-1.581v3.092c0 .786.281 1.178.837 1.178.258 0 .471-.021.64-.066l.037 1.073c-.284.106-.657.159-1.116.159-.567 0-1.008-.17-1.327-.51-.321-.341-.48-.913-.48-1.717V4.83h-.944V3.77h.944V2.605l1.407-.418V3.77h1.582v1.06h.001Zm7.603 5.304h-1.438V6.517c0-1.141-.433-1.712-1.3-1.712-.666 0-1.121.33-1.371.992a1.77 1.77 0 0 0-.067.509v3.827h-1.434V.851h1.434v3.835h.028c.452-.698 1.1-1.046 1.94-1.046.595 0 1.087.191 1.477.576.487.48.731 1.192.731 2.134v3.784Zm7.842-3.482c0 .253-.019.467-.053.64h-4.307c.019.63.225 1.11.623 1.441.365.297.835.446 1.411.446.637 0 1.218-.1 1.741-.301l.225.982c-.612.262-1.333.393-2.168.393-1 0-1.788-.29-2.358-.87-.573-.58-.857-1.36-.857-2.337 0-.96.265-1.76.798-2.397.556-.68 1.309-1.02 2.258-1.02.929 0 1.635.34 2.112 1.02.385.54.575 1.209.575 2.003Zm-1.37-.366c.011-.42-.083-.782-.278-1.087-.249-.393-.629-.59-1.143-.59-.469 0-.851.192-1.143.576a2.13 2.13 0 0 0-.426 1.1h2.99Z" fill="#fff"/></svg>