<svg width="28" height="28" fill="none" xmlns="http://www.w3.org/2000/svg"><path d="M19.653.667H8.347C4.12.667.667 4.119.667 8.347v11.306c0 4.228 3.452 7.68 7.68 7.68h11.306c4.228 0 7.68-3.452 7.68-7.68V8.347c0-4.228-3.365-7.68-7.68-7.68Zm5.264 19.158a5.047 5.047 0 0 1-5.092 5.092H8.261a5.047 5.047 0 0 1-5.092-5.092V8.347a5.047 5.047 0 0 1 5.092-5.091h11.564a5.047 5.047 0 0 1 5.092 5.091v11.478Z" fill="#fff"/><path d="M14.043 7.14c-3.797 0-6.904 3.106-6.904 6.903 0 3.797 3.106 6.904 6.904 6.904 3.797 0 6.904-3.107 6.904-6.904 0-3.797-3.107-6.904-6.904-6.904Zm0 11.39a4.457 4.457 0 0 1-4.488-4.487 4.457 4.457 0 0 1 4.488-4.487 4.457 4.457 0 0 1 4.487 4.487 4.457 4.457 0 0 1-4.487 4.488Zm7.163-10.01a1.64 1.64 0 1 0 0-3.28 1.64 1.64 0 0 0 0 3.28Z" fill="#fff"/></svg>