<svg width="54" height="59" fill="none" xmlns="http://www.w3.org/2000/svg"><path d="M43.951 32.805a133.639 133.639 0 0 1-8.446 9.255 133.527 133.527 0 0 1-9.254 8.447c.205.007.41.015.618.015a17.118 17.118 0 0 0 17.098-17.098c0-.208-.008-.413-.016-.62ZM51.05 9.244c-2.368-2.37-6.706-1.53-13.262 2.568a78.289 78.289 0 0 0-6.974 4.976 17.087 17.087 0 0 0-20.58 20.58 78.229 78.229 0 0 0-4.976 6.974C1.16 50.898.319 55.236 2.687 57.606a4.629 4.629 0 0 0 3.428 1.309c2.435 0 5.692-1.288 9.834-3.878 5.372-3.358 11.703-8.58 17.827-14.703 6.125-6.124 11.346-12.456 14.704-17.827 4.097-6.557 4.938-10.895 2.57-13.263Zm-7.437 11.803c-3.18 4.82-7.899 10.442-13.289 15.831-5.39 5.389-11.012 10.11-15.83 13.289-4.743 3.128-7.298 3.837-8.238 3.87.033-.938.743-3.494 3.871-8.236a72.162 72.162 0 0 1 2.295-3.259 17.26 17.26 0 0 0 3.275 3.808 113.005 113.005 0 0 0 12.9-11.199 113.032 113.032 0 0 0 11.2-12.899 17.249 17.249 0 0 0-3.81-3.276 71.03 71.03 0 0 1 3.258-2.295c4.742-3.128 7.298-3.838 8.237-3.87-.033.939-.742 3.494-3.87 8.236ZM4.885 10.22a6.113 6.113 0 0 1 6.107 6.106 1.221 1.221 0 1 0 2.442 0 6.113 6.113 0 0 1 6.107-6.107 1.221 1.221 0 0 0 0-2.443 6.113 6.113 0 0 1-6.107-6.106 1.221 1.221 0 0 0-2.442 0 6.114 6.114 0 0 1-6.107 6.106 1.221 1.221 0 0 0 0 2.443Zm39.082 43.966a2.443 2.443 0 1 0 0-4.885 2.443 2.443 0 0 0 0 4.885ZM2.443 34.645a2.443 2.443 0 1 0 0-4.885 2.443 2.443 0 0 0 0 4.885Zm48.852-2.442a2.443 2.443 0 1 0 0-4.886 2.443 2.443 0 0 0 0 4.886Z" fill="#1F294A"/></svg>