<svg width="16" height="28" fill="none" xmlns="http://www.w3.org/2000/svg"><path fill-rule="evenodd" clip-rule="evenodd" d="M7.298.667A6.878 6.878 0 0 0 .39 7.573a6.878 6.878 0 0 0 6.907 6.907 6.878 6.878 0 0 0 6.906-6.907A6.878 6.878 0 0 0 7.298.667Zm.096 9.976A2.989 2.989 0 0 1 4.42 7.669a2.989 2.989 0 0 1 2.974-2.974 2.989 2.989 0 0 1 2.973 2.974 2.989 2.989 0 0 1-2.973 2.974Z" fill="#fff"/><path d="M9.984 19.66c1.246-.192 2.59-.576 4.028-1.152.96-.383 1.44-1.534 1.056-2.494-.384-.959-1.535-1.438-2.495-1.055-5.755 2.398-9.496.192-9.688.096-.863-.575-2.014-.288-2.59.672-.575.863-.287 2.11.672 2.59.096.096 1.63.959 4.22 1.343L.775 24.072c-.767.767-.672 1.918 0 2.686.384.384.863.575 1.343.575s.96-.191 1.343-.575l4.029-4.125 4.028 4.125c.384.384.864.575 1.343.575.48 0 .96-.191 1.343-.575.768-.768.768-1.919 0-2.686l-4.22-4.412Z" fill="#fff"/></svg>