<svg width="29" height="16" fill="none" xmlns="http://www.w3.org/2000/svg"><path fill-rule="evenodd" clip-rule="evenodd" d="M14.023 15.879h1.698s.453 0 .793-.343c.227-.229.227-.685.227-.685s0-2.285 1.019-2.628c1.019-.343 2.378 2.17 3.737 3.199 1.019.685 1.811.57 1.811.57h3.738s1.925-.113 1.019-1.713c-.114-.114-.567-1.142-2.718-3.198-2.378-2.17-2.039-1.828.793-5.598 1.698-2.284 2.378-3.655 2.151-4.34C28.065.57 26.82.684 26.82.684h-4.19s-.34 0-.566.115c-.227.114-.34.457-.34.457s-.68 1.827-1.585 3.312c-1.812 3.199-2.605 3.313-2.944 3.199-.68-.457-.567-1.828-.567-2.856 0-3.084.453-4.34-.906-4.684C15.268.114 14.93 0 13.796 0c-1.472 0-2.717 0-3.51.343-.453.228-.793.8-.566.8.226 0 .906.114 1.245.57.453.572.453 1.943.453 1.943s.227 3.655-.566 4.112c-.566.343-1.359-.343-3.057-3.199-.906-1.485-1.586-3.198-1.586-3.198s-.113-.343-.34-.457C5.644.685 5.19.685 5.19.685H1.227S.66.685.434.914c-.226.228 0 .685 0 .685S3.604 8.91 7.115 12.68c3.17 3.427 6.908 3.199 6.908 3.199Z" fill="#fff"/></svg>